# Blender v2.74 (sub 0) OBJ File: ''
# www.blender.org
o Icosphere
v 0.000000 -1.000000 0.000000
v 0.723607 -0.447220 0.525725
v -0.276388 -0.447220 0.850649
v -0.894426 -0.447216 0.000000
v -0.276388 -0.447220 -0.850649
v 0.723607 -0.447220 -0.525725
v 0.276388 0.447220 0.850649
v -0.723607 0.447220 0.525725
v -0.723607 0.447220 -0.525725
v 0.276388 0.447220 -0.850649
v 0.894426 0.447216 0.000000
v 0.000000 1.000000 0.000000
v -0.162456 -0.850654 0.499995
v 0.425323 -0.850654 0.309011
v 0.262869 -0.525738 0.809012
v 0.850648 -0.525736 0.000000
v 0.425323 -0.850654 -0.309011
v -0.525730 -0.850652 0.000000
v -0.688189 -0.525736 0.499997
v -0.162456 -0.850654 -0.499995
v -0.688189 -0.525736 -0.499997
v 0.262869 -0.525738 -0.809012
v 0.951058 0.000000 0.309013
v 0.951058 0.000000 -0.309013
v 0.000000 0.000000 1.000000
v 0.587786 0.000000 0.809017
v -0.951058 0.000000 0.309013
v -0.587786 0.000000 0.809017
v -0.587786 0.000000 -0.809017
v -0.951058 0.000000 -0.309013
v 0.587786 0.000000 -0.809017
v 0.000000 0.000000 -1.000000
v 0.688189 0.525736 0.499997
v -0.262869 0.525738 0.809012
v -0.850648 0.525736 0.000000
v -0.262869 0.525738 -0.809012
v 0.688189 0.525736 -0.499997
v 0.162456 0.850654 0.499995
v 0.525730 0.850652 0.000000
v -0.425323 0.850654 0.309011
v -0.425323 0.850654 -0.309011
v 0.162456 0.850654 -0.499995
vt 0.500000 0.500000
vt 0.712661 0.345494
vt 0.418772 0.250002
vt 0.237137 0.276390
vt 0.345494 0.074673
vt 0.500000 0.237132
vt 0.237135 0.500000
vt 0.418772 0.749998
vt 0.712661 0.654506
vt 0.345494 0.500000
vt 0.361806 0.276390
vt 0.631434 0.237131
vt 0.500000 0.276392
vt 0.250002 0.237132
vt 0.155905 0.237132
vt 0.206107 0.500000
vt 0.861804 0.276390
vt 0.793893 0.500000
vt 0.095492 0.500000
vt 0.654506 0.500000
vt 0.762863 0.276390
vt 0.904508 0.500000
vt 0.638194 0.074675
vt 0.844095 0.250002
vt 0.581228 0.250002
vt 0.138196 0.237137
vt 0.368566 0.095494
vt 0.287339 0.345494
vt 0.762863 0.723610
vt 0.500000 0.762868
vt 0.654506 0.925327
vt 0.638194 0.723610
vt 0.368566 0.762869
vt 0.581228 0.925327
vt 0.500000 0.723608
vt 0.749998 0.762868
vt 0.500000 0.925326
vt 0.762865 0.500000
vt 0.581228 0.749998
vt 0.844095 0.749998
vt 0.638194 0.925325
vt 0.287339 0.654506
vt 0.368566 0.904506
vt 0.138196 0.762863
vt 0.074676 0.500000
vt 0.237137 0.723610
vt 0.345494 0.925327
vt 0.250002 0.762868
vt 0.844095 0.762868
vt 0.138196 0.723610
vt 0.749998 0.237132
vt 0.631434 0.904506
vt 0.861804 0.762863
vt 0.418772 0.074673
vt 0.155905 0.749998
vt 0.361806 0.925325
vt 0.500000 0.074674
vt 0.155905 0.250002
vt 0.361806 0.074675
vt 0.654506 0.074673
vt 0.925324 0.500000
vt 0.631434 0.095494
vt 0.861804 0.237137
vn 0.102400 -0.943500 0.315100
vn 0.700200 -0.661700 0.268000
vn -0.268000 -0.943500 0.194700
vn -0.268000 -0.943500 -0.194700
vn 0.102400 -0.943500 -0.315100
vn 0.905000 -0.330400 0.268000
vn 0.024700 -0.330400 0.943500
vn -0.889700 -0.330400 0.315100
vn -0.574600 -0.330400 -0.748800
vn 0.534600 -0.330400 -0.777900
vn 0.802600 -0.125600 0.583100
vn -0.306600 -0.125600 0.943500
vn -0.992100 -0.125600 0.000000
vn -0.306600 -0.125600 -0.943500
vn 0.802600 -0.125600 -0.583100
vn 0.408900 0.661700 0.628400
vn -0.471300 0.661700 0.583100
vn -0.700200 0.661700 -0.268000
vn 0.038500 0.661700 -0.748800
vn 0.724000 0.661700 -0.194700
vn 0.268000 0.943500 -0.194700
vn 0.491100 0.794700 -0.356800
vn 0.408900 0.661700 -0.628400
vn -0.102400 0.943500 -0.315100
vn -0.187600 0.794700 -0.577300
vn -0.471300 0.661700 -0.583100
vn -0.331300 0.943500 0.000000
vn -0.607100 0.794700 0.000000
vn -0.700200 0.661700 0.268000
vn -0.102400 0.943500 0.315100
vn -0.187600 0.794700 0.577300
vn 0.038500 0.661700 0.748800
vn 0.268000 0.943500 0.194700
vn 0.491100 0.794700 0.356800
vn 0.724000 0.661700 0.194700
vn 0.889700 0.330400 -0.315100
vn 0.794700 0.187600 -0.577300
vn 0.574600 0.330400 -0.748800
vn -0.024700 0.330400 -0.943500
vn -0.303500 0.187600 -0.934200
vn -0.534600 0.330400 -0.777900
vn -0.905000 0.330400 -0.268000
vn -0.982200 0.187600 0.000000
vn -0.905000 0.330400 0.268000
vn -0.534600 0.330400 0.777900
vn -0.303500 0.187600 0.934200
vn -0.024700 0.330400 0.943500
vn 0.574600 0.330400 0.748800
vn 0.794700 0.187600 0.577300
vn 0.889700 0.330400 0.315100
vn 0.306600 0.125600 -0.943500
vn 0.303500 -0.187600 -0.934200
vn 0.024700 -0.330400 -0.943500
vn -0.802600 0.125600 -0.583100
vn -0.794700 -0.187600 -0.577300
vn -0.889700 -0.330400 -0.315100
vn -0.802600 0.125600 0.583100
vn -0.794700 -0.187600 0.577300
vn -0.574600 -0.330400 0.748800
vn 0.306600 0.125600 0.943500
vn 0.303500 -0.187600 0.934200
vn 0.534600 -0.330400 0.777900
vn 0.992100 0.125600 0.000000
vn 0.982200 -0.187600 0.000000
vn 0.905000 -0.330400 -0.268000
vn 0.471300 -0.661700 -0.583100
vn 0.187600 -0.794700 -0.577300
vn -0.038500 -0.661700 -0.748800
vn -0.408900 -0.661700 -0.628400
vn -0.491100 -0.794700 -0.356800
vn -0.724000 -0.661700 -0.194700
vn -0.724000 -0.661700 0.194700
vn -0.491100 -0.794700 0.356800
vn -0.408900 -0.661700 0.628400
vn 0.700200 -0.661700 -0.268000
vn 0.607100 -0.794700 0.000000
vn 0.331300 -0.943500 0.000000
vn -0.038500 -0.661700 0.748800
vn 0.187600 -0.794700 0.577300
vn 0.471300 -0.661700 0.583100
s off
f 1/1/1 14/2/1 13/3/1
f 2/4/2 14/5/2 16/6/2
f 1/1/3 13/3/3 18/7/3
f 1/1/4 18/7/4 20/8/4
f 1/1/5 20/8/5 17/9/5
f 2/4/6 16/6/6 23/10/6
f 3/11/7 15/12/7 25/1/7
f 4/13/8 19/14/8 27/10/8
f 5/11/9 21/15/9 29/16/9
f 6/17/10 22/12/10 31/18/10
f 2/4/11 23/10/11 26/19/11
f 3/11/12 25/1/12 28/16/12
f 4/13/13 27/10/13 30/20/13
f 5/11/14 29/16/14 32/1/14
f 6/21/15 31/22/15 24/20/15
f 7/23/16 33/24/16 38/25/16
f 8/26/17 34/27/17 40/28/17
f 9/29/18 35/30/18 41/31/18
f 10/32/19 36/33/19 42/34/19
f 11/35/20 37/36/20 39/37/20
f 39/38/21 42/39/21 12/1/21
f 39/38/22 37/40/22 42/39/22
f 37/40/23 10/41/23 42/39/23
f 42/39/24 41/42/24 12/1/24
f 42/39/25 36/43/25 41/42/25
f 36/43/26 9/44/26 41/42/26
f 41/42/27 40/28/27 12/1/27
f 41/42/28 35/45/28 40/28/28
f 35/30/29 8/46/29 40/47/29
f 40/28/30 38/25/30 12/1/30
f 40/28/31 34/27/31 38/25/31
f 34/33/32 7/32/32 38/34/32
f 38/25/33 39/38/33 12/1/33
f 38/25/34 33/24/34 39/38/34
f 33/48/35 11/35/35 39/37/35
f 24/20/36 37/36/36 11/35/36
f 24/20/37 31/22/37 37/36/37
f 31/18/38 10/32/38 37/49/38
f 32/1/39 36/33/39 10/32/39
f 32/1/40 29/16/40 36/33/40
f 29/16/41 9/50/41 36/33/41
f 30/20/42 35/30/42 9/29/42
f 30/20/43 27/10/43 35/30/43
f 27/10/44 8/46/44 35/30/44
f 28/16/45 34/33/45 8/50/45
f 28/16/46 25/1/46 34/33/46
f 25/1/47 7/32/47 34/33/47
f 26/18/48 33/49/48 7/32/48
f 26/19/49 23/10/49 33/48/49
f 23/10/50 11/35/50 33/48/50
f 31/18/51 32/1/51 10/32/51
f 31/18/52 22/12/52 32/1/52
f 22/12/53 5/11/53 32/1/53
f 29/22/54 30/20/54 9/29/54
f 29/22/55 21/51/55 30/20/55
f 21/51/56 4/13/56 30/20/56
f 27/10/57 28/19/57 8/46/57
f 27/10/58 19/14/58 28/19/58
f 19/15/59 3/11/59 28/16/59
f 25/1/60 26/18/60 7/32/60
f 25/1/61 15/12/61 26/18/61
f 15/12/62 2/17/62 26/18/62
f 23/10/63 24/20/63 11/35/63
f 23/10/64 16/6/64 24/20/64
f 16/6/65 6/21/65 24/20/65
f 17/9/66 22/52/66 6/53/66
f 17/9/67 20/8/67 22/52/67
f 20/54/68 5/11/68 22/12/68
f 20/8/69 21/55/69 5/56/69
f 20/8/70 18/7/70 21/55/70
f 18/57/71 4/13/71 21/51/71
f 18/57/72 19/14/72 4/13/72
f 18/7/73 13/3/73 19/58/73
f 13/3/74 3/59/74 19/58/74
f 16/6/75 17/60/75 6/21/75
f 16/61/76 14/2/76 17/9/76
f 14/2/77 1/1/77 17/9/77
f 13/54/78 15/12/78 3/11/78
f 13/3/79 14/2/79 15/62/79
f 14/2/80 2/63/80 15/62/80
