# Blender v2.74 (sub 0) OBJ File: ''
# www.blender.org
o Cube
v -0.110567 -0.057652 2.071807
v -0.110567 0.057652 2.071807
v -0.206080 -0.084589 1.845133
v -0.206080 0.084589 1.845133
v 0.110567 -0.057652 2.071807
v 0.110567 0.057652 2.071807
v 0.206080 -0.084589 1.845133
v 0.206080 0.084589 1.845133
v 0.000000 0.000000 2.270021
v -0.309112 0.126881 1.516875
v -0.309112 -0.126881 1.516875
v 0.309112 0.126881 1.516875
v 0.309112 -0.126881 1.516875
v -0.356410 0.146295 1.261618
v -0.356410 -0.146295 1.261618
v 0.356410 0.146295 1.261618
v 0.356410 -0.146295 1.261618
v -0.356410 0.146295 0.803499
v -0.356410 -0.146295 0.803499
v 0.356410 0.146295 0.803499
v 0.356410 -0.146295 0.803499
v -0.356410 0.146295 0.302567
v -0.356410 -0.146295 0.302567
v 0.356410 0.146295 0.302567
v 0.356410 -0.146295 0.302567
v -0.434917 0.178519 0.278438
v -0.434917 -0.178519 0.278438
v 0.434917 0.178519 0.278438
v 0.434917 -0.178519 0.278438
v -0.687273 0.226325 0.040243
v -0.687273 -0.226325 0.040243
v 0.687273 0.226325 0.040243
v 0.687273 -0.226325 0.040243
v -0.687273 0.226325 -0.251923
v -0.687273 -0.226325 -0.251923
v 0.687273 0.226325 -0.251923
v 0.687273 -0.226325 -0.251923
v -1.006156 0.331336 -0.422302
v -1.006156 -0.331336 -0.422302
v 1.006156 0.331336 -0.422302
v 1.006156 -0.331336 -0.422302
v -2.008327 0.331336 -0.905619
v -2.008327 -0.331336 -0.905619
v 2.008327 0.331336 -0.905619
v 2.008327 -0.331336 -0.905619
v -2.248930 0.371031 -1.300650
v -2.248930 -0.371031 -1.300650
v 2.248930 0.371031 -1.300650
v 2.248930 -0.371031 -1.300650
v -1.456844 0.240352 -1.011883
v -1.456844 -0.240352 -1.011883
v 1.456844 0.240352 -1.011883
v 1.456844 -0.240352 -1.011883
vn -0.921500 0.000000 0.388300
vn 0.000000 -0.991800 0.127800
vn 0.921500 0.000000 0.388300
vn 0.000000 -0.993000 0.118000
vn 0.000000 0.993000 0.118000
vn 0.000000 -0.960200 0.279300
vn 0.000000 0.960200 0.279300
vn 0.873300 0.000000 0.487200
vn -0.873300 0.000000 0.487200
vn 0.000000 -0.997100 0.075800
vn 0.954100 0.000000 0.299500
vn 0.000000 0.991800 0.127800
vn -0.954100 0.000000 0.299500
vn 0.000000 -1.000000 0.000000
vn 0.983300 0.000000 0.182200
vn 0.000000 0.997100 0.075800
vn -0.983300 0.000000 0.182200
vn 1.000000 0.000000 0.000000
vn 0.000000 1.000000 0.000000
vn -1.000000 0.000000 0.000000
vn 0.000000 -0.599400 0.800500
vn 0.000000 -0.980400 0.196800
vn 0.293800 0.000000 0.955900
vn 0.000000 0.599400 0.800500
vn -0.293800 0.000000 0.955900
vn 0.686400 0.000000 0.727200
vn 0.000000 0.980400 0.196800
vn -0.686400 0.000000 0.727200
vn 0.000000 -0.851300 0.524700
vn 0.471300 0.000000 0.882000
vn 0.000000 0.851300 0.524700
vn -0.471300 0.000000 0.882000
vn 0.000000 -0.995000 0.100000
vn 0.434400 0.000000 0.900700
vn -0.434400 0.000000 0.900700
vn 0.000000 0.911100 -0.412300
vn 0.854100 0.000000 0.520200
vn 0.000000 0.995000 0.100000
vn -0.854100 0.000000 0.520200
vn 0.000000 0.000000 -1.000000
vn -0.342500 0.000000 -0.939500
vn 0.000000 -0.911100 -0.412300
vn 0.342500 0.000000 -0.939500
f 2//1 4//1 3//1
f 7//2 3//2 11//2
f 6//3 5//3 7//3
f 3//4 7//4 5//4
f 8//5 4//5 2//5
f 1//6 5//6 9//6
f 6//7 2//7 9//7
f 5//8 6//8 9//8
f 2//9 1//9 9//9
f 11//10 15//10 17//10
f 7//11 13//11 12//11
f 4//12 8//12 12//12
f 4//13 10//13 11//13
f 15//14 19//14 21//14
f 13//15 17//15 16//15
f 12//16 16//16 14//16
f 10//17 14//17 15//17
f 19//14 23//14 25//14
f 17//18 21//18 20//18
f 16//19 20//19 18//19
f 14//20 18//20 19//20
f 23//21 27//21 29//21
f 21//18 25//18 24//18
f 20//19 24//19 22//19
f 18//20 22//20 23//20
f 27//22 31//22 33//22
f 25//23 29//23 28//23
f 24//24 28//24 26//24
f 22//25 26//25 27//25
f 31//14 35//14 37//14
f 29//26 33//26 32//26
f 28//27 32//27 30//27
f 26//28 30//28 31//28
f 35//29 39//29 41//29
f 33//18 37//18 36//18
f 32//19 36//19 34//19
f 30//20 34//20 35//20
f 39//14 43//14 45//14
f 37//30 41//30 40//30
f 36//31 40//31 38//31
f 34//32 38//32 39//32
f 43//33 47//33 49//33
f 41//34 45//34 44//34
f 40//19 44//19 42//19
f 38//35 42//35 43//35
f 47//36 51//36 53//36
f 45//37 49//37 48//37
f 44//38 48//38 46//38
f 42//39 46//39 47//39
f 52//40 53//40 51//40
f 49//41 53//41 52//41
f 48//42 52//42 50//42
f 46//43 50//43 51//43
f 1//1 2//1 3//1
f 13//2 7//2 11//2
f 8//3 6//3 7//3
f 1//4 3//4 5//4
f 6//5 8//5 2//5
f 13//10 11//10 17//10
f 8//11 7//11 12//11
f 10//12 4//12 12//12
f 3//13 4//13 11//13
f 17//14 15//14 21//14
f 12//15 13//15 16//15
f 10//16 12//16 14//16
f 11//17 10//17 15//17
f 21//14 19//14 25//14
f 16//18 17//18 20//18
f 14//19 16//19 18//19
f 15//20 14//20 19//20
f 25//21 23//21 29//21
f 20//18 21//18 24//18
f 18//19 20//19 22//19
f 19//20 18//20 23//20
f 29//22 27//22 33//22
f 24//23 25//23 28//23
f 22//24 24//24 26//24
f 23//25 22//25 27//25
f 33//14 31//14 37//14
f 28//26 29//26 32//26
f 26//27 28//27 30//27
f 27//28 26//28 31//28
f 37//29 35//29 41//29
f 32//18 33//18 36//18
f 30//19 32//19 34//19
f 31//20 30//20 35//20
f 41//14 39//14 45//14
f 36//30 37//30 40//30
f 34//31 36//31 38//31
f 35//32 34//32 39//32
f 45//33 43//33 49//33
f 40//34 41//34 44//34
f 38//19 40//19 42//19
f 39//35 38//35 43//35
f 49//36 47//36 53//36
f 44//37 45//37 48//37
f 42//38 44//38 46//38
f 43//39 42//39 47//39
f 50//40 52//40 51//40
f 48//41 49//41 52//41
f 46//42 48//42 50//42
f 47//43 46//43 51//43
