# Blender v2.74 (sub 0) OBJ File: 'Rocket.blend'
# www.blender.org
o Cube.001_Cube.002
v 1.019094 -1.375237 -1.019094
v 1.000000 -0.035618 -1.000000
v 1.000000 1.281934 -1.000000
v 1.883289 -2.339417 -0.896704
v 0.928061 -2.386271 -0.928061
v 0.960474 -2.339417 -1.845092
v 1.514031 -3.316466 -1.463775
v 0.868975 3.053554 -0.868975
v 0.000000 -0.035618 -1.000000
v 0.000000 1.281934 -1.000000
v -1.019094 -1.375237 -1.019094
v -1.000000 -0.035618 -1.000000
v -1.000000 1.281934 -1.000000
v -1.883289 -2.339417 -0.896704
v 0.000000 -1.375237 -1.019094
v -0.928061 -2.386271 -0.928061
v 0.000000 -2.386271 -0.928061
v -0.960474 -2.339417 -1.845092
v -1.514031 -3.316466 -1.463775
v 0.000000 3.053554 -0.868975
v -0.868975 3.053554 -0.868975
v 1.019094 -1.375237 0.000000
v 1.019094 -1.375237 1.019094
v 0.928061 -2.386271 0.000000
v 1.000000 -0.035618 1.000000
v 1.000000 1.281934 1.000000
v 1.883289 -2.339417 0.896704
v 1.000000 1.281934 0.000000
v 1.000000 -0.035618 0.000000
v 0.928061 -2.386271 0.928061
v 0.960474 -2.339417 1.845092
v 1.514031 -3.316466 1.463775
v 0.868975 3.053554 0.868975
v 0.868975 3.053554 0.000000
v 0.000000 -0.035618 1.000000
v 0.000000 1.281934 1.000000
v -1.019094 -1.375237 0.000000
v -1.019094 -1.375237 1.019094
v -0.928061 -2.386271 0.000000
v -1.000000 -0.035618 1.000000
v -1.000000 1.281934 1.000000
v -1.883289 -2.339417 0.896704
v 0.000000 -1.375237 1.019094
v -1.000000 1.281934 0.000000
v -1.000000 -0.035618 0.000000
v -0.928061 -2.386271 0.928061
v 0.000000 -2.386271 0.000000
v 0.000000 -2.386271 0.928061
v -0.960474 -2.339417 1.845092
v -1.514031 -3.316466 1.463775
v 0.000000 3.053554 0.868975
v -0.868975 3.053554 0.868975
v -0.868975 3.053554 0.000000
v 0.000000 4.344306 0.000000
vt 0.931368 0.537600
vt 0.931368 0.401013
vt 0.720197 0.401013
vt 0.004345 0.535251
vt 0.004345 0.342562
vt 0.231884 0.342562
vt 0.000000 0.146324
vt 0.231884 0.146324
vt 0.020714 0.000000
vt 0.236229 0.657438
vt 0.463769 0.657438
vt 0.463769 0.853676
vt 0.252598 1.000000
vt 0.231884 0.853676
vt 0.463769 0.464749
vt 0.236229 0.464749
vt 0.266042 0.203442
vt 0.720197 0.260259
vt 0.720197 0.529737
vt 0.593430 0.420533
vt 0.463769 0.314496
vt 0.508460 0.465939
vt 0.924233 0.260259
vt 0.537573 0.221378
vt 0.678515 0.114508
vt 0.781050 0.260259
vt 0.781050 0.000000
vt 0.463769 0.042178
vt 1.000000 0.155196
vt 0.781050 0.154440
vt 1.000000 0.000000
vt 0.231884 0.535251
vt 0.231884 0.796558
vt 0.034158 0.796558
vt 0.463769 0.203442
vt 0.463769 0.000000
vt 0.231884 1.000000
vt 0.231884 0.000000
vt 0.720197 0.537600
vt 0.463769 1.000000
vn 0.000000 -1.000000 0.000000
vn 0.000000 0.000000 -1.000000
vn 0.000000 0.014300 -0.999900
vn 0.000000 -0.089700 -0.996000
vn 0.999900 0.014300 0.000000
vn 0.996000 -0.089700 0.000000
vn 0.997300 0.073800 0.000000
vn 1.000000 0.000000 0.000000
vn -0.846100 -0.533000 0.000000
vn 0.000000 -0.998700 -0.051000
vn -0.049000 0.998800 0.000000
vn 0.710400 0.132700 -0.691200
vn 0.580800 -0.561600 0.589400
vn 0.627000 0.484500 -0.610100
vn -0.593000 0.544300 -0.593300
vn 0.547900 0.568900 0.613300
vn 0.000000 0.073800 -0.997300
vn 0.829500 0.558500 0.000000
vn 0.000000 0.558500 -0.829500
vn -0.999900 0.014300 0.000000
vn -0.996000 -0.089700 0.000000
vn -0.997300 0.073800 0.000000
vn -1.000000 0.000000 0.000000
vn 0.859100 -0.508700 -0.056400
vn 0.049000 0.998800 0.000000
vn -0.710400 0.132700 -0.691200
vn -0.580800 -0.561600 0.589400
vn -0.627000 0.484500 -0.610100
vn 0.593000 0.544300 -0.593300
vn -0.547900 0.568900 0.613300
vn -0.829500 0.558500 0.000000
vn 0.000000 0.000000 1.000000
vn 0.000000 0.014300 0.999900
vn 0.000000 -0.089700 0.996000
vn -0.859100 -0.508700 0.056400
vn 0.000000 -0.998700 0.051000
vn 0.710400 0.132700 0.691200
vn 0.580800 -0.561600 -0.589400
vn 0.627000 0.484500 0.610100
vn -0.593000 0.544300 0.593300
vn 0.547900 0.568900 -0.613300
vn 0.000000 0.073800 0.997300
vn 0.000000 0.558500 0.829500
vn 0.846100 -0.533000 0.000000
vn -0.710400 0.132700 0.691200
vn -0.580800 -0.561600 -0.589400
vn -0.627000 0.484500 0.610100
vn 0.593000 0.544300 0.593300
vn -0.547900 0.568900 -0.613300
vn -0.859100 -0.508700 -0.056400
vn 0.859100 -0.508700 0.056400
s off
f 17/1/1 5/2/1 24/3/1
f 3/4/2 2/5/2 9/6/2
f 2/5/3 1/7/3 15/8/3
f 15/8/4 1/7/4 5/9/4
f 2/10/5 29/11/5 22/12/5
f 5/13/6 1/14/6 22/12/6
f 28/15/7 3/16/7 8/17/7
f 28/15/8 29/11/8 2/10/8
f 7/18/9 24/19/9 5/20/9
f 6/21/10 5/20/10 17/22/10
f 5/2/11 24/3/11 4/23/11
f 6/24/12 4/25/12 7/26/12
f 24/27/13 7/26/13 4/25/13
f 4/25/14 6/24/14 1/28/14
f 6/29/15 17/30/15 1/31/15
f 4/25/16 1/28/16 24/27/16
f 10/32/17 20/33/17 8/34/17
f 34/35/18 8/17/18 54/36/18
f 8/34/19 20/33/19 54/37/19
f 39/3/1 16/2/1 17/1/1
f 9/6/2 12/5/2 13/4/2
f 15/8/3 11/7/3 12/5/3
f 15/8/4 17/38/4 16/9/4
f 12/10/20 11/14/20 37/12/20
f 37/12/21 11/14/21 16/13/21
f 44/15/22 53/35/22 21/17/22
f 12/10/23 45/11/23 44/15/23
f 19/18/24 18/21/24 16/20/24
f 18/21/10 17/22/10 16/20/10
f 16/2/25 14/23/25 39/3/25
f 18/24/26 19/26/26 14/25/26
f 39/27/27 14/25/27 19/26/27
f 14/25/28 11/28/28 18/24/28
f 18/29/29 11/31/29 17/30/29
f 14/25/30 39/27/30 11/28/30
f 21/34/17 20/33/17 10/32/17
f 53/35/31 54/36/31 21/17/31
f 21/34/19 54/37/19 20/33/19
f 24/3/1 30/2/1 48/1/1
f 35/6/32 25/5/32 26/4/32
f 43/8/33 23/7/33 25/5/33
f 43/8/34 48/38/34 30/9/34
f 25/10/5 23/14/5 22/12/5
f 22/12/6 23/14/6 30/13/6
f 28/15/7 34/35/7 33/17/7
f 25/10/8 29/11/8 28/15/8
f 32/18/35 31/21/35 30/20/35
f 31/21/36 48/22/36 30/20/36
f 30/2/11 27/23/11 24/3/11
f 31/24/37 32/26/37 27/25/37
f 24/27/38 27/25/38 32/26/38
f 27/25/39 23/28/39 31/24/39
f 31/29/40 23/31/40 48/30/40
f 27/25/41 24/27/41 23/28/41
f 33/34/42 51/33/42 36/32/42
f 34/35/18 54/36/18 33/17/18
f 33/34/43 54/37/43 51/33/43
f 48/1/1 46/2/1 39/3/1
f 41/4/32 40/5/32 35/6/32
f 40/5/33 38/7/33 43/8/33
f 43/8/34 38/7/34 46/9/34
f 40/10/20 45/11/20 37/12/20
f 46/13/21 38/14/21 37/12/21
f 44/15/22 41/16/22 52/17/22
f 44/15/23 45/11/23 40/10/23
f 50/18/44 39/19/44 46/20/44
f 49/21/36 46/20/36 48/22/36
f 46/2/25 39/3/25 42/23/25
f 49/24/45 42/25/45 50/26/45
f 39/27/46 50/26/46 42/25/46
f 42/25/47 49/24/47 38/28/47
f 49/29/48 48/30/48 38/31/48
f 42/25/49 38/28/49 39/27/49
f 36/32/42 51/33/42 52/34/42
f 53/35/31 52/17/31 54/36/31
f 52/34/43 51/33/43 54/37/43
f 47/39/1 17/1/1 24/3/1
f 10/32/2 3/4/2 9/6/2
f 9/6/3 2/5/3 15/8/3
f 17/38/4 15/8/4 5/9/4
f 1/14/5 2/10/5 22/12/5
f 24/40/6 5/13/6 22/12/6
f 34/35/7 28/15/7 8/17/7
f 3/16/8 28/15/8 2/10/8
f 6/21/50 7/18/50 5/20/50
f 3/4/17 10/32/17 8/34/17
f 47/39/1 39/3/1 17/1/1
f 10/32/2 9/6/2 13/4/2
f 9/6/3 15/8/3 12/5/3
f 11/7/4 15/8/4 16/9/4
f 45/11/20 12/10/20 37/12/20
f 39/40/21 37/12/21 16/13/21
f 13/16/22 44/15/22 21/17/22
f 13/16/23 12/10/23 44/15/23
f 39/19/44 19/18/44 16/20/44
f 13/4/17 21/34/17 10/32/17
f 47/39/1 24/3/1 48/1/1
f 36/32/32 35/6/32 26/4/32
f 35/6/33 43/8/33 25/5/33
f 23/7/34 43/8/34 30/9/34
f 29/11/5 25/10/5 22/12/5
f 24/40/6 22/12/6 30/13/6
f 26/16/7 28/15/7 33/17/7
f 26/16/8 25/10/8 28/15/8
f 24/19/9 32/18/9 30/20/9
f 26/4/42 33/34/42 36/32/42
f 47/39/1 48/1/1 39/3/1
f 36/32/32 41/4/32 35/6/32
f 35/6/33 40/5/33 43/8/33
f 48/38/34 43/8/34 46/9/34
f 38/14/20 40/10/20 37/12/20
f 39/40/21 46/13/21 37/12/21
f 53/35/22 44/15/22 52/17/22
f 41/16/23 44/15/23 40/10/23
f 49/21/51 50/18/51 46/20/51
f 41/4/42 36/32/42 52/34/42
